<mxfile host="app.diagrams.net" modified="2021-01-23T01:23:52.029Z" agent="5.0 (Macintosh; Intel Mac OS X 10_15_7) AppleWebKit/605.1.15 (KHTML, like Gecko) Version/14.0 Safari/605.1.15" etag="H6JkgK0FelZu_QUOCK28" version="14.2.6" type="github" pages="3">
  <diagram name="Page-1" id="7a3GRu2hfadzpDtONcy7">
    <mxGraphModel dx="589" dy="365" grid="1" gridSize="10" guides="1" tooltips="1" connect="1" arrows="1" fold="1" page="1" pageScale="1" pageWidth="1600" pageHeight="900" math="0" shadow="0">
      <root>
        <mxCell id="0" />
        <mxCell id="1" parent="0" />
        <mxCell id="qPu6gQEEcX8NeI5X6pTX-1" value="" style="ellipse;whiteSpace=wrap;html=1;fillColor=none;" vertex="1" parent="1">
          <mxGeometry x="150" y="400" width="20" height="80" as="geometry" />
        </mxCell>
        <mxCell id="qPu6gQEEcX8NeI5X6pTX-2" value="" style="endArrow=none;html=1;strokeColor=#000000;strokeWidth=1;" edge="1" parent="1">
          <mxGeometry width="50" height="50" relative="1" as="geometry">
            <mxPoint x="80.00000000000023" y="480" as="sourcePoint" />
            <mxPoint x="80.00000000000023" y="400" as="targetPoint" />
          </mxGeometry>
        </mxCell>
        <mxCell id="qPu6gQEEcX8NeI5X6pTX-3" value="" style="endArrow=none;html=1;strokeColor=#000000;strokeWidth=1;" edge="1" parent="1">
          <mxGeometry width="50" height="50" relative="1" as="geometry">
            <mxPoint x="1439.9999999999995" y="680" as="sourcePoint" />
            <mxPoint x="1439.9999999999995" y="200" as="targetPoint" />
          </mxGeometry>
        </mxCell>
        <mxCell id="qPu6gQEEcX8NeI5X6pTX-4" value="D" style="endArrow=classic;startArrow=classic;html=1;strokeColor=#000000;strokeWidth=1;" edge="1" parent="1">
          <mxGeometry width="50" height="50" relative="1" as="geometry">
            <mxPoint x="160.00000000000023" y="200" as="sourcePoint" />
            <mxPoint x="1439.9999999999995" y="200" as="targetPoint" />
          </mxGeometry>
        </mxCell>
        <mxCell id="qPu6gQEEcX8NeI5X6pTX-5" value="R_eye" style="endArrow=classic;startArrow=classic;html=1;strokeColor=#000000;strokeWidth=1;" edge="1" parent="1">
          <mxGeometry width="50" height="50" relative="1" as="geometry">
            <mxPoint x="80.00000000000023" y="200" as="sourcePoint" />
            <mxPoint x="160.00000000000023" y="200" as="targetPoint" />
          </mxGeometry>
        </mxCell>
        <mxCell id="qPu6gQEEcX8NeI5X6pTX-6" value="" style="endArrow=none;html=1;strokeWidth=1;" edge="1" parent="1">
          <mxGeometry width="50" height="50" relative="1" as="geometry">
            <mxPoint x="40.00000000000023" y="440" as="sourcePoint" />
            <mxPoint x="1559.9999999999995" y="440" as="targetPoint" />
          </mxGeometry>
        </mxCell>
        <mxCell id="qPu6gQEEcX8NeI5X6pTX-7" value="" style="rounded=0;whiteSpace=wrap;html=1;strokeWidth=1;fillColor=none;" vertex="1" parent="1">
          <mxGeometry x="1430" y="400" width="10" height="40" as="geometry" />
        </mxCell>
        <mxCell id="qPu6gQEEcX8NeI5X6pTX-8" value="H_pixel" style="endArrow=classic;startArrow=classic;html=1;strokeColor=#000000;strokeWidth=1;" edge="1" parent="1">
          <mxGeometry width="50" height="50" relative="1" as="geometry">
            <mxPoint x="1359.9999999999995" y="280" as="sourcePoint" />
            <mxPoint x="1359.9999999999995" y="240" as="targetPoint" />
          </mxGeometry>
        </mxCell>
        <mxCell id="qPu6gQEEcX8NeI5X6pTX-9" value="" style="rounded=0;whiteSpace=wrap;html=1;strokeWidth=1;fillColor=none;" vertex="1" parent="1">
          <mxGeometry x="1430" y="360" width="10" height="40" as="geometry" />
        </mxCell>
        <mxCell id="qPu6gQEEcX8NeI5X6pTX-10" value="" style="rounded=0;whiteSpace=wrap;html=1;strokeWidth=1;fillColor=none;" vertex="1" parent="1">
          <mxGeometry x="1430" y="320" width="10" height="40" as="geometry" />
        </mxCell>
        <mxCell id="qPu6gQEEcX8NeI5X6pTX-11" value="" style="rounded=0;whiteSpace=wrap;html=1;strokeWidth=1;fillColor=none;" vertex="1" parent="1">
          <mxGeometry x="1430" y="280" width="10" height="40" as="geometry" />
        </mxCell>
        <mxCell id="qPu6gQEEcX8NeI5X6pTX-12" value="" style="rounded=0;whiteSpace=wrap;html=1;strokeWidth=1;fillColor=none;" vertex="1" parent="1">
          <mxGeometry x="1430" y="440" width="10" height="40" as="geometry" />
        </mxCell>
        <mxCell id="qPu6gQEEcX8NeI5X6pTX-13" value="" style="ellipse;whiteSpace=wrap;html=1;aspect=fixed;strokeWidth=1;fillColor=none;dashed=1;" vertex="1" parent="1">
          <mxGeometry x="80" y="400" width="80" height="80" as="geometry" />
        </mxCell>
        <mxCell id="qPu6gQEEcX8NeI5X6pTX-14" value="" style="endArrow=none;html=1;strokeColor=#000000;strokeWidth=1;exitX=0;exitY=0.625;exitDx=0;exitDy=0;exitPerimeter=0;entryX=0;entryY=0;entryDx=0;entryDy=0;" edge="1" parent="1" source="qPu6gQEEcX8NeI5X6pTX-13" target="qPu6gQEEcX8NeI5X6pTX-11">
          <mxGeometry width="50" height="50" relative="1" as="geometry">
            <mxPoint x="760" y="470" as="sourcePoint" />
            <mxPoint x="1330" y="340" as="targetPoint" />
          </mxGeometry>
        </mxCell>
        <mxCell id="qPu6gQEEcX8NeI5X6pTX-15" value="" style="rounded=0;whiteSpace=wrap;html=1;strokeWidth=1;fillColor=none;" vertex="1" parent="1">
          <mxGeometry x="1430" y="480" width="10" height="40" as="geometry" />
        </mxCell>
        <mxCell id="qPu6gQEEcX8NeI5X6pTX-16" value="" style="rounded=0;whiteSpace=wrap;html=1;strokeWidth=1;fillColor=none;" vertex="1" parent="1">
          <mxGeometry x="1430" y="520" width="10" height="40" as="geometry" />
        </mxCell>
        <mxCell id="qPu6gQEEcX8NeI5X6pTX-17" value="" style="rounded=0;whiteSpace=wrap;html=1;strokeWidth=1;fillColor=none;" vertex="1" parent="1">
          <mxGeometry x="1430" y="560" width="10" height="40" as="geometry" />
        </mxCell>
        <mxCell id="qPu6gQEEcX8NeI5X6pTX-18" value="" style="endArrow=none;html=1;strokeColor=#000000;strokeWidth=1;entryX=0;entryY=1;entryDx=0;entryDy=0;" edge="1" parent="1" target="qPu6gQEEcX8NeI5X6pTX-17">
          <mxGeometry width="50" height="50" relative="1" as="geometry">
            <mxPoint x="80.00000000000023" y="430" as="sourcePoint" />
            <mxPoint x="640" y="460" as="targetPoint" />
          </mxGeometry>
        </mxCell>
        <mxCell id="qPu6gQEEcX8NeI5X6pTX-19" value="" style="rounded=0;whiteSpace=wrap;html=1;strokeWidth=1;fillColor=none;" vertex="1" parent="1">
          <mxGeometry x="1430" y="240" width="10" height="40" as="geometry" />
        </mxCell>
        <mxCell id="qPu6gQEEcX8NeI5X6pTX-20" value="" style="endArrow=none;html=1;strokeColor=#000000;strokeWidth=1;entryX=0;entryY=1;entryDx=0;entryDy=0;" edge="1" parent="1" target="qPu6gQEEcX8NeI5X6pTX-19">
          <mxGeometry width="50" height="50" relative="1" as="geometry">
            <mxPoint x="160.00000000000023" y="280" as="sourcePoint" />
            <mxPoint x="800" y="360" as="targetPoint" />
          </mxGeometry>
        </mxCell>
        <mxCell id="qPu6gQEEcX8NeI5X6pTX-21" value="" style="endArrow=none;html=1;strokeColor=#000000;strokeWidth=1;" edge="1" parent="1">
          <mxGeometry width="50" height="50" relative="1" as="geometry">
            <mxPoint x="80.00000000000023" y="450" as="sourcePoint" />
            <mxPoint x="160.00000000000023" y="280" as="targetPoint" />
          </mxGeometry>
        </mxCell>
        <mxCell id="qPu6gQEEcX8NeI5X6pTX-22" value="" style="endArrow=none;html=1;strokeColor=#000000;strokeWidth=1;" edge="1" parent="1">
          <mxGeometry width="50" height="50" relative="1" as="geometry">
            <mxPoint x="80.00000000000023" y="430" as="sourcePoint" />
            <mxPoint x="160.00000000000023" y="600" as="targetPoint" />
          </mxGeometry>
        </mxCell>
        <mxCell id="qPu6gQEEcX8NeI5X6pTX-23" value="" style="endArrow=none;html=1;strokeColor=#000000;strokeWidth=1;entryX=0;entryY=1;entryDx=0;entryDy=0;" edge="1" parent="1" target="qPu6gQEEcX8NeI5X6pTX-17">
          <mxGeometry width="50" height="50" relative="1" as="geometry">
            <mxPoint x="160.00000000000023" y="600" as="sourcePoint" />
            <mxPoint x="820" y="530" as="targetPoint" />
          </mxGeometry>
        </mxCell>
        <mxCell id="E0-WRQmvgw795ULU6JbC-1" value="f_eye" style="endArrow=classic;startArrow=classic;html=1;strokeColor=#000000;strokeWidth=1;startFill=1;targetPerimeterSpacing=0;" edge="1" parent="1">
          <mxGeometry width="50" height="50" relative="1" as="geometry">
            <mxPoint x="85" y="240" as="sourcePoint" />
            <mxPoint x="160.00000000000023" y="240" as="targetPoint" />
          </mxGeometry>
        </mxCell>
        <mxCell id="E0-WRQmvgw795ULU6JbC-3" value="H_eye" style="endArrow=classic;html=1;strokeColor=#000000;startArrow=classic;startFill=1;" edge="1" parent="1">
          <mxGeometry width="50" height="50" relative="1" as="geometry">
            <mxPoint x="30" y="450" as="sourcePoint" />
            <mxPoint x="30" y="430" as="targetPoint" />
          </mxGeometry>
        </mxCell>
        <mxCell id="E0-WRQmvgw795ULU6JbC-6" value="レンズの公式　1 / R_eye + 1 / D = 1 / f_eye" style="text;html=1;strokeColor=none;fillColor=none;align=left;verticalAlign=middle;whiteSpace=wrap;rounded=0;" vertex="1" parent="1">
          <mxGeometry x="200" y="90" width="280" height="20" as="geometry" />
        </mxCell>
        <mxCell id="E0-WRQmvgw795ULU6JbC-8" value="網膜上の像の大きさ　K x H_pel x R_eye / D &amp;nbsp;" style="text;html=1;strokeColor=none;fillColor=none;align=left;verticalAlign=middle;whiteSpace=wrap;rounded=0;" vertex="1" parent="1">
          <mxGeometry x="200" y="130" width="280" height="20" as="geometry" />
        </mxCell>
      </root>
    </mxGraphModel>
  </diagram>
  <diagram id="Sm7bQRQv_0GZYlB4zhhX" name="Page-3">
    <mxGraphModel dx="1030" dy="639" grid="1" gridSize="10" guides="1" tooltips="1" connect="1" arrows="1" fold="1" page="1" pageScale="1" pageWidth="1600" pageHeight="900" math="0" shadow="0">
      <root>
        <mxCell id="O-BFLg1ubG6YsvQ3Q_m6-0" />
        <mxCell id="O-BFLg1ubG6YsvQ3Q_m6-1" parent="O-BFLg1ubG6YsvQ3Q_m6-0" />
        <mxCell id="5EJzLGsfzFTNAtvTrGF2-0" value="" style="ellipse;whiteSpace=wrap;html=1;fillColor=none;" vertex="1" parent="O-BFLg1ubG6YsvQ3Q_m6-1">
          <mxGeometry x="150" y="400" width="20" height="80" as="geometry" />
        </mxCell>
        <mxCell id="5EJzLGsfzFTNAtvTrGF2-2" value="" style="endArrow=none;html=1;strokeColor=#000000;strokeWidth=1;" edge="1" parent="O-BFLg1ubG6YsvQ3Q_m6-1">
          <mxGeometry width="50" height="50" relative="1" as="geometry">
            <mxPoint x="1439.9999999999998" y="680" as="sourcePoint" />
            <mxPoint x="1439.9999999999998" y="200" as="targetPoint" />
          </mxGeometry>
        </mxCell>
        <mxCell id="5EJzLGsfzFTNAtvTrGF2-3" value="D" style="endArrow=classic;startArrow=classic;html=1;strokeColor=#000000;strokeWidth=1;" edge="1" parent="O-BFLg1ubG6YsvQ3Q_m6-1">
          <mxGeometry width="50" height="50" relative="1" as="geometry">
            <mxPoint x="160.00000000000023" y="200" as="sourcePoint" />
            <mxPoint x="1439.9999999999998" y="200" as="targetPoint" />
          </mxGeometry>
        </mxCell>
        <mxCell id="5EJzLGsfzFTNAtvTrGF2-4" value="R_eye" style="endArrow=classic;startArrow=classic;html=1;strokeColor=#000000;strokeWidth=1;" edge="1" parent="O-BFLg1ubG6YsvQ3Q_m6-1">
          <mxGeometry width="50" height="50" relative="1" as="geometry">
            <mxPoint x="82.5" y="200" as="sourcePoint" />
            <mxPoint x="160.00000000000023" y="200" as="targetPoint" />
          </mxGeometry>
        </mxCell>
        <mxCell id="5EJzLGsfzFTNAtvTrGF2-5" value="" style="endArrow=none;html=1;strokeWidth=1;" edge="1" parent="O-BFLg1ubG6YsvQ3Q_m6-1">
          <mxGeometry width="50" height="50" relative="1" as="geometry">
            <mxPoint x="40.00000000000023" y="440" as="sourcePoint" />
            <mxPoint x="1559.9999999999998" y="440" as="targetPoint" />
          </mxGeometry>
        </mxCell>
        <mxCell id="5EJzLGsfzFTNAtvTrGF2-6" value="" style="rounded=0;whiteSpace=wrap;html=1;strokeWidth=1;fillColor=none;" vertex="1" parent="O-BFLg1ubG6YsvQ3Q_m6-1">
          <mxGeometry x="1430" y="400" width="10" height="40" as="geometry" />
        </mxCell>
        <mxCell id="5EJzLGsfzFTNAtvTrGF2-7" value="H_pixel" style="endArrow=classic;startArrow=classic;html=1;strokeColor=#000000;strokeWidth=1;" edge="1" parent="O-BFLg1ubG6YsvQ3Q_m6-1">
          <mxGeometry width="50" height="50" relative="1" as="geometry">
            <mxPoint x="1359.9999999999998" y="280" as="sourcePoint" />
            <mxPoint x="1359.9999999999998" y="240" as="targetPoint" />
          </mxGeometry>
        </mxCell>
        <mxCell id="5EJzLGsfzFTNAtvTrGF2-8" value="" style="rounded=0;whiteSpace=wrap;html=1;strokeWidth=1;fillColor=none;" vertex="1" parent="O-BFLg1ubG6YsvQ3Q_m6-1">
          <mxGeometry x="1430" y="360" width="10" height="40" as="geometry" />
        </mxCell>
        <mxCell id="5EJzLGsfzFTNAtvTrGF2-9" value="" style="rounded=0;whiteSpace=wrap;html=1;strokeWidth=1;fillColor=none;" vertex="1" parent="O-BFLg1ubG6YsvQ3Q_m6-1">
          <mxGeometry x="1430" y="320" width="10" height="40" as="geometry" />
        </mxCell>
        <mxCell id="5EJzLGsfzFTNAtvTrGF2-10" value="" style="rounded=0;whiteSpace=wrap;html=1;strokeWidth=1;fillColor=none;" vertex="1" parent="O-BFLg1ubG6YsvQ3Q_m6-1">
          <mxGeometry x="1430" y="280" width="10" height="40" as="geometry" />
        </mxCell>
        <mxCell id="5EJzLGsfzFTNAtvTrGF2-11" value="" style="rounded=0;whiteSpace=wrap;html=1;strokeWidth=1;fillColor=none;" vertex="1" parent="O-BFLg1ubG6YsvQ3Q_m6-1">
          <mxGeometry x="1430" y="440" width="10" height="40" as="geometry" />
        </mxCell>
        <mxCell id="5EJzLGsfzFTNAtvTrGF2-12" value="" style="ellipse;whiteSpace=wrap;html=1;aspect=fixed;strokeWidth=1;fillColor=none;dashed=1;" vertex="1" parent="O-BFLg1ubG6YsvQ3Q_m6-1">
          <mxGeometry x="82.5" y="400" width="77.5" height="77.5" as="geometry" />
        </mxCell>
        <mxCell id="5EJzLGsfzFTNAtvTrGF2-13" value="" style="endArrow=none;html=1;strokeColor=#000000;strokeWidth=1;exitX=0;exitY=0.625;exitDx=0;exitDy=0;exitPerimeter=0;entryX=0;entryY=0;entryDx=0;entryDy=0;" edge="1" parent="O-BFLg1ubG6YsvQ3Q_m6-1" source="5EJzLGsfzFTNAtvTrGF2-12" target="5EJzLGsfzFTNAtvTrGF2-10">
          <mxGeometry width="50" height="50" relative="1" as="geometry">
            <mxPoint x="760" y="470" as="sourcePoint" />
            <mxPoint x="1330" y="340" as="targetPoint" />
          </mxGeometry>
        </mxCell>
        <mxCell id="5EJzLGsfzFTNAtvTrGF2-14" value="" style="rounded=0;whiteSpace=wrap;html=1;strokeWidth=1;fillColor=none;" vertex="1" parent="O-BFLg1ubG6YsvQ3Q_m6-1">
          <mxGeometry x="1430" y="480" width="10" height="40" as="geometry" />
        </mxCell>
        <mxCell id="5EJzLGsfzFTNAtvTrGF2-15" value="" style="rounded=0;whiteSpace=wrap;html=1;strokeWidth=1;fillColor=none;" vertex="1" parent="O-BFLg1ubG6YsvQ3Q_m6-1">
          <mxGeometry x="1430" y="520" width="10" height="40" as="geometry" />
        </mxCell>
        <mxCell id="5EJzLGsfzFTNAtvTrGF2-16" value="" style="rounded=0;whiteSpace=wrap;html=1;strokeWidth=1;fillColor=none;" vertex="1" parent="O-BFLg1ubG6YsvQ3Q_m6-1">
          <mxGeometry x="1430" y="560" width="10" height="40" as="geometry" />
        </mxCell>
        <mxCell id="5EJzLGsfzFTNAtvTrGF2-17" value="" style="endArrow=none;html=1;strokeColor=#000000;strokeWidth=1;entryX=0;entryY=1;entryDx=0;entryDy=0;" edge="1" parent="O-BFLg1ubG6YsvQ3Q_m6-1" target="5EJzLGsfzFTNAtvTrGF2-16">
          <mxGeometry width="50" height="50" relative="1" as="geometry">
            <mxPoint x="80.00000000000026" y="430" as="sourcePoint" />
            <mxPoint x="640" y="460" as="targetPoint" />
          </mxGeometry>
        </mxCell>
        <mxCell id="5EJzLGsfzFTNAtvTrGF2-18" value="" style="rounded=0;whiteSpace=wrap;html=1;strokeWidth=1;fillColor=none;" vertex="1" parent="O-BFLg1ubG6YsvQ3Q_m6-1">
          <mxGeometry x="1430" y="240" width="10" height="40" as="geometry" />
        </mxCell>
        <mxCell id="5EJzLGsfzFTNAtvTrGF2-19" value="" style="endArrow=none;html=1;strokeColor=#000000;strokeWidth=1;entryX=0;entryY=1;entryDx=0;entryDy=0;" edge="1" parent="O-BFLg1ubG6YsvQ3Q_m6-1" target="5EJzLGsfzFTNAtvTrGF2-18">
          <mxGeometry width="50" height="50" relative="1" as="geometry">
            <mxPoint x="160.00000000000023" y="280" as="sourcePoint" />
            <mxPoint x="800" y="360" as="targetPoint" />
          </mxGeometry>
        </mxCell>
        <mxCell id="5EJzLGsfzFTNAtvTrGF2-20" value="" style="endArrow=none;html=1;strokeColor=#000000;strokeWidth=1;" edge="1" parent="O-BFLg1ubG6YsvQ3Q_m6-1">
          <mxGeometry width="50" height="50" relative="1" as="geometry">
            <mxPoint x="80.00000000000026" y="450" as="sourcePoint" />
            <mxPoint x="160.00000000000023" y="280" as="targetPoint" />
          </mxGeometry>
        </mxCell>
        <mxCell id="5EJzLGsfzFTNAtvTrGF2-21" value="" style="endArrow=none;html=1;strokeColor=#000000;strokeWidth=1;" edge="1" parent="O-BFLg1ubG6YsvQ3Q_m6-1">
          <mxGeometry width="50" height="50" relative="1" as="geometry">
            <mxPoint x="80.00000000000026" y="430" as="sourcePoint" />
            <mxPoint x="160.00000000000023" y="600" as="targetPoint" />
          </mxGeometry>
        </mxCell>
        <mxCell id="5EJzLGsfzFTNAtvTrGF2-22" value="" style="endArrow=none;html=1;strokeColor=#000000;strokeWidth=1;entryX=0;entryY=1;entryDx=0;entryDy=0;" edge="1" parent="O-BFLg1ubG6YsvQ3Q_m6-1" target="5EJzLGsfzFTNAtvTrGF2-16">
          <mxGeometry width="50" height="50" relative="1" as="geometry">
            <mxPoint x="160.00000000000023" y="600" as="sourcePoint" />
            <mxPoint x="820" y="530" as="targetPoint" />
          </mxGeometry>
        </mxCell>
        <mxCell id="Kz808EU3oK9VHZm7_yF5-0" value="" style="endArrow=none;html=1;strokeColor=#000000;strokeWidth=1;" edge="1" parent="O-BFLg1ubG6YsvQ3Q_m6-1">
          <mxGeometry width="50" height="50" relative="1" as="geometry">
            <mxPoint x="82.5" y="480" as="sourcePoint" />
            <mxPoint x="82.5" y="400" as="targetPoint" />
          </mxGeometry>
        </mxCell>
        <mxCell id="Kz808EU3oK9VHZm7_yF5-6" value="" style="shape=cylinder3;whiteSpace=wrap;html=1;boundedLbl=1;backgroundOutline=1;size=15;strokeColor=#000000;" vertex="1" parent="O-BFLg1ubG6YsvQ3Q_m6-1">
          <mxGeometry x="80" y="680" width="80" height="80" as="geometry" />
        </mxCell>
        <mxCell id="TVFUxA-T6JeTZXIgqpQS-0" value="レンズの公式　1 / R_eye + 1 / D = 1 / f_eye" style="text;html=1;strokeColor=none;fillColor=none;align=left;verticalAlign=middle;whiteSpace=wrap;rounded=0;" vertex="1" parent="O-BFLg1ubG6YsvQ3Q_m6-1">
          <mxGeometry x="200" y="90" width="280" height="20" as="geometry" />
        </mxCell>
        <mxCell id="TVFUxA-T6JeTZXIgqpQS-1" value="網膜上の像の大きさ　K x H_pel x R_eye / D &amp;nbsp;" style="text;html=1;strokeColor=none;fillColor=none;align=left;verticalAlign=middle;whiteSpace=wrap;rounded=0;" vertex="1" parent="O-BFLg1ubG6YsvQ3Q_m6-1">
          <mxGeometry x="200" y="130" width="280" height="20" as="geometry" />
        </mxCell>
        <mxCell id="ZDdO-dcQloH5EORL8huc-0" value="f_eye" style="endArrow=classic;startArrow=classic;html=1;strokeColor=#000000;strokeWidth=1;startFill=1;targetPerimeterSpacing=0;" edge="1" parent="O-BFLg1ubG6YsvQ3Q_m6-1">
          <mxGeometry width="50" height="50" relative="1" as="geometry">
            <mxPoint x="85" y="240" as="sourcePoint" />
            <mxPoint x="160.0000000000001" y="240" as="targetPoint" />
          </mxGeometry>
        </mxCell>
      </root>
    </mxGraphModel>
  </diagram>
  <diagram name="Page-2" id="VQb3lBOzGy79j-PMazCt">
    <mxGraphModel dx="66" dy="41" grid="1" gridSize="5" guides="1" tooltips="1" connect="1" arrows="1" fold="1" page="1" pageScale="1" pageWidth="1600" pageHeight="900" math="0" shadow="0">
      <root>
        <mxCell id="sewA7ood8XrnDMm98eSQ-0" />
        <mxCell id="sewA7ood8XrnDMm98eSQ-1" parent="sewA7ood8XrnDMm98eSQ-0" />
        <mxCell id="RDo5sBgDktN1UGUY_ZIq-0" value="" style="ellipse;whiteSpace=wrap;html=1;fillColor=none;" vertex="1" parent="sewA7ood8XrnDMm98eSQ-1">
          <mxGeometry x="150" y="400" width="20" height="80" as="geometry" />
        </mxCell>
        <mxCell id="RDo5sBgDktN1UGUY_ZIq-1" value="" style="endArrow=none;html=1;strokeColor=#000000;strokeWidth=1;" edge="1" parent="sewA7ood8XrnDMm98eSQ-1">
          <mxGeometry width="50" height="50" relative="1" as="geometry">
            <mxPoint x="82.5" y="480" as="sourcePoint" />
            <mxPoint x="82.5" y="400" as="targetPoint" />
          </mxGeometry>
        </mxCell>
        <mxCell id="RDo5sBgDktN1UGUY_ZIq-2" value="" style="endArrow=none;html=1;strokeColor=#000000;strokeWidth=1;" edge="1" parent="sewA7ood8XrnDMm98eSQ-1">
          <mxGeometry width="50" height="50" relative="1" as="geometry">
            <mxPoint x="1439.9999999999995" y="680" as="sourcePoint" />
            <mxPoint x="1439.9999999999995" y="200" as="targetPoint" />
          </mxGeometry>
        </mxCell>
        <mxCell id="RDo5sBgDktN1UGUY_ZIq-3" value="D" style="endArrow=classic;startArrow=classic;html=1;strokeColor=#000000;strokeWidth=1;" edge="1" parent="sewA7ood8XrnDMm98eSQ-1">
          <mxGeometry width="50" height="50" relative="1" as="geometry">
            <mxPoint x="160" y="200" as="sourcePoint" />
            <mxPoint x="1439.9999999999995" y="200" as="targetPoint" />
          </mxGeometry>
        </mxCell>
        <mxCell id="RDo5sBgDktN1UGUY_ZIq-4" value="R_eye" style="endArrow=classic;startArrow=classic;html=1;strokeColor=#000000;strokeWidth=1;" edge="1" parent="sewA7ood8XrnDMm98eSQ-1">
          <mxGeometry width="50" height="50" relative="1" as="geometry">
            <mxPoint x="80" y="200" as="sourcePoint" />
            <mxPoint x="160" y="200" as="targetPoint" />
          </mxGeometry>
        </mxCell>
        <mxCell id="RDo5sBgDktN1UGUY_ZIq-5" value="" style="endArrow=none;html=1;strokeWidth=1;" edge="1" parent="sewA7ood8XrnDMm98eSQ-1">
          <mxGeometry width="50" height="50" relative="1" as="geometry">
            <mxPoint x="40" y="440" as="sourcePoint" />
            <mxPoint x="1559.9999999999995" y="440" as="targetPoint" />
          </mxGeometry>
        </mxCell>
        <mxCell id="RDo5sBgDktN1UGUY_ZIq-6" value="" style="rounded=0;whiteSpace=wrap;html=1;strokeWidth=1;fillColor=none;" vertex="1" parent="sewA7ood8XrnDMm98eSQ-1">
          <mxGeometry x="1430" y="400" width="10" height="40" as="geometry" />
        </mxCell>
        <mxCell id="RDo5sBgDktN1UGUY_ZIq-7" value="H_pixel" style="endArrow=classic;startArrow=classic;html=1;strokeColor=#000000;strokeWidth=1;" edge="1" parent="sewA7ood8XrnDMm98eSQ-1">
          <mxGeometry width="50" height="50" relative="1" as="geometry">
            <mxPoint x="1359.9999999999995" y="280" as="sourcePoint" />
            <mxPoint x="1359.9999999999995" y="240" as="targetPoint" />
          </mxGeometry>
        </mxCell>
        <mxCell id="RDo5sBgDktN1UGUY_ZIq-8" value="" style="rounded=0;whiteSpace=wrap;html=1;strokeWidth=1;fillColor=none;" vertex="1" parent="sewA7ood8XrnDMm98eSQ-1">
          <mxGeometry x="1430" y="360" width="10" height="40" as="geometry" />
        </mxCell>
        <mxCell id="RDo5sBgDktN1UGUY_ZIq-9" value="" style="rounded=0;whiteSpace=wrap;html=1;strokeWidth=1;fillColor=none;" vertex="1" parent="sewA7ood8XrnDMm98eSQ-1">
          <mxGeometry x="1430" y="320" width="10" height="40" as="geometry" />
        </mxCell>
        <mxCell id="RDo5sBgDktN1UGUY_ZIq-10" value="" style="rounded=0;whiteSpace=wrap;html=1;strokeWidth=1;fillColor=none;" vertex="1" parent="sewA7ood8XrnDMm98eSQ-1">
          <mxGeometry x="1430" y="280" width="10" height="40" as="geometry" />
        </mxCell>
        <mxCell id="RDo5sBgDktN1UGUY_ZIq-11" value="" style="rounded=0;whiteSpace=wrap;html=1;strokeWidth=1;fillColor=none;" vertex="1" parent="sewA7ood8XrnDMm98eSQ-1">
          <mxGeometry x="1430" y="440" width="10" height="40" as="geometry" />
        </mxCell>
        <mxCell id="RDo5sBgDktN1UGUY_ZIq-12" value="" style="ellipse;whiteSpace=wrap;html=1;aspect=fixed;strokeWidth=1;fillColor=none;dashed=1;dashPattern=1 1;" vertex="1" parent="sewA7ood8XrnDMm98eSQ-1">
          <mxGeometry x="80" y="400" width="80" height="80" as="geometry" />
        </mxCell>
        <mxCell id="RDo5sBgDktN1UGUY_ZIq-13" value="" style="endArrow=none;html=1;strokeColor=#000000;strokeWidth=1;entryX=0;entryY=0;entryDx=0;entryDy=0;exitX=-0.005;exitY=0.626;exitDx=0;exitDy=0;exitPerimeter=0;" edge="1" parent="sewA7ood8XrnDMm98eSQ-1" source="RDo5sBgDktN1UGUY_ZIq-12" target="RDo5sBgDktN1UGUY_ZIq-10">
          <mxGeometry width="50" height="50" relative="1" as="geometry">
            <mxPoint x="82.5" y="455" as="sourcePoint" />
            <mxPoint x="1330" y="340" as="targetPoint" />
          </mxGeometry>
        </mxCell>
        <mxCell id="RDo5sBgDktN1UGUY_ZIq-14" value="" style="rounded=0;whiteSpace=wrap;html=1;strokeWidth=1;fillColor=none;" vertex="1" parent="sewA7ood8XrnDMm98eSQ-1">
          <mxGeometry x="1430" y="480" width="10" height="40" as="geometry" />
        </mxCell>
        <mxCell id="RDo5sBgDktN1UGUY_ZIq-15" value="" style="rounded=0;whiteSpace=wrap;html=1;strokeWidth=1;fillColor=none;" vertex="1" parent="sewA7ood8XrnDMm98eSQ-1">
          <mxGeometry x="1430" y="520" width="10" height="40" as="geometry" />
        </mxCell>
        <mxCell id="RDo5sBgDktN1UGUY_ZIq-16" value="" style="rounded=0;whiteSpace=wrap;html=1;strokeWidth=1;fillColor=none;" vertex="1" parent="sewA7ood8XrnDMm98eSQ-1">
          <mxGeometry x="1430" y="560" width="10" height="40" as="geometry" />
        </mxCell>
        <mxCell id="RDo5sBgDktN1UGUY_ZIq-17" value="" style="endArrow=none;html=1;strokeColor=#000000;strokeWidth=1;" edge="1" parent="sewA7ood8XrnDMm98eSQ-1">
          <mxGeometry width="50" height="50" relative="1" as="geometry">
            <mxPoint x="83" y="420" as="sourcePoint" />
            <mxPoint x="1960" y="880" as="targetPoint" />
          </mxGeometry>
        </mxCell>
        <mxCell id="RDo5sBgDktN1UGUY_ZIq-18" value="" style="rounded=0;whiteSpace=wrap;html=1;strokeWidth=1;fillColor=none;" vertex="1" parent="sewA7ood8XrnDMm98eSQ-1">
          <mxGeometry x="1430" y="240" width="10" height="40" as="geometry" />
        </mxCell>
        <mxCell id="RDo5sBgDktN1UGUY_ZIq-19" value="" style="endArrow=none;html=1;strokeColor=#000000;strokeWidth=1;entryX=0;entryY=1;entryDx=0;entryDy=0;" edge="1" parent="sewA7ood8XrnDMm98eSQ-1" target="RDo5sBgDktN1UGUY_ZIq-18">
          <mxGeometry width="50" height="50" relative="1" as="geometry">
            <mxPoint x="160" y="280" as="sourcePoint" />
            <mxPoint x="800" y="360" as="targetPoint" />
          </mxGeometry>
        </mxCell>
        <mxCell id="RDo5sBgDktN1UGUY_ZIq-20" value="" style="endArrow=none;html=1;strokeColor=#000000;strokeWidth=1;" edge="1" parent="sewA7ood8XrnDMm98eSQ-1">
          <mxGeometry width="50" height="50" relative="1" as="geometry">
            <mxPoint x="80" y="450" as="sourcePoint" />
            <mxPoint x="160" y="280" as="targetPoint" />
          </mxGeometry>
        </mxCell>
        <mxCell id="RDo5sBgDktN1UGUY_ZIq-21" value="" style="endArrow=none;html=1;strokeColor=#000000;strokeWidth=1;" edge="1" parent="sewA7ood8XrnDMm98eSQ-1">
          <mxGeometry width="50" height="50" relative="1" as="geometry">
            <mxPoint x="82.5" y="420" as="sourcePoint" />
            <mxPoint x="85" y="440" as="targetPoint" />
          </mxGeometry>
        </mxCell>
        <mxCell id="RDo5sBgDktN1UGUY_ZIq-22" value="" style="endArrow=none;html=1;strokeColor=#000000;strokeWidth=1;" edge="1" parent="sewA7ood8XrnDMm98eSQ-1">
          <mxGeometry width="50" height="50" relative="1" as="geometry">
            <mxPoint x="160" y="890" as="sourcePoint" />
            <mxPoint x="1525" y="880" as="targetPoint" />
          </mxGeometry>
        </mxCell>
        <mxCell id="r2tFXl9tZKYUsKgK-Pe6-22" value="" style="endArrow=none;html=1;strokeColor=#000000;strokeWidth=1;" edge="1" parent="sewA7ood8XrnDMm98eSQ-1">
          <mxGeometry width="50" height="50" relative="1" as="geometry">
            <mxPoint x="85" y="440" as="sourcePoint" />
            <mxPoint x="87.5" y="460" as="targetPoint" />
          </mxGeometry>
        </mxCell>
        <mxCell id="CnxJzdYJLxfYmD3Nyi-h-0" value="" style="endArrow=none;html=1;strokeColor=#000000;strokeWidth=1;entryX=0;entryY=1;entryDx=0;entryDy=0;" edge="1" parent="sewA7ood8XrnDMm98eSQ-1">
          <mxGeometry width="50" height="50" relative="1" as="geometry">
            <mxPoint x="80.00000000000023" y="430.00000000000006" as="sourcePoint" />
            <mxPoint x="1430" y="600" as="targetPoint" />
          </mxGeometry>
        </mxCell>
        <mxCell id="gaum1kB6CZySgVJszavz-0" value="" style="endArrow=none;html=1;strokeColor=#000000;strokeWidth=1;" edge="1" parent="sewA7ood8XrnDMm98eSQ-1">
          <mxGeometry width="50" height="50" relative="1" as="geometry">
            <mxPoint x="80.00000000000023" y="430.00000000000006" as="sourcePoint" />
            <mxPoint x="160.00000000000023" y="600" as="targetPoint" />
          </mxGeometry>
        </mxCell>
      </root>
    </mxGraphModel>
  </diagram>
</mxfile>
